Coordinates
version=1
nRows=4
nColumns=63
inDegrees=yes

Units are S.I. units (second, meters, Newtons, ...)
If the header above contains a line with 'inDegrees', this indicates whether rotational values are in degrees (yes) or radians (no).

endheader
time	pelvis_tilt	pelvis_list	pelvis_rotation	pelvis_tx	pelvis_ty	pelvis_tz	hip_flexion_r	hip_adduction_r	hip_rotation_r	knee_angle_r	knee_angle_r_beta	ankle_angle_r	subtalar_angle_r	mtp_angle_r	hip_flexion_l	hip_adduction_l	hip_rotation_l	knee_angle_l	knee_angle_l_beta	ankle_angle_l	subtalar_angle_l	mtp_angle_l	L5_S1_Flex_Ext	L5_S1_Lat_Bending	L5_S1_axial_rotation	L4_L5_Flex_Ext	L4_L5_Lat_Bending	L4_L5_axial_rotation	L3_L4_Flex_Ext	L3_L4_Lat_Bending	L3_L4_axial_rotation	L2_L3_Flex_Ext	L2_L3_Lat_Bending	L2_L3_axial_rotation	L1_L2_Flex_Ext	L1_L2_Lat_Bending	L1_L2_axial_rotation	L1_T12_Flex_Ext	L1_T12_Lat_Bending	L1_T12_axial_rotation	Abs_r3	Abs_r2	Abs_r1	Abs_t1	Abs_t2	neck_flexion	neck_bending	neck_rotation	arm_flex_r	arm_add_r	arm_rot_r	elbow_flex_r	pro_sup_r	wrist_flex_r	wrist_dev_r	arm_flex_l	arm_add_l	arm_rot_l	elbow_flex_l	pro_sup_l	wrist_flex_l	wrist_dev_l
      0.00000000	     -4.75182157	     -3.39249410	     99.22235640	      0.09211608	      0.54868926	      0.78417376	      0.72942968	      0.34222379	     -7.58648615	      9.79093120	      0.17088399	     31.36082993	      5.92533400	      0.00000000	      2.94586360	      1.01700098	     -1.46148678	     11.01924682	      0.19232214	     30.94024494	      0.00882267	      0.00000000	      0.47023217	     -0.18463153	      0.23554602	      0.87326817	     -0.24555994	      0.25026765	      0.77254444	     -0.44891311	      0.25026765	      0.53742835	     -0.44891311	      0.20610277	      0.43665760	     -0.37650062	      0.19138114	      0.26869066	     -0.28599425	      0.17665952	      3.35882139	     -2.08858884	      1.31003632	      0.00000000	      0.00000000	     28.22682272	      2.15749714	      9.67539505	      2.01525714	    -13.00338046	     47.73091278	     65.74053563	     88.89275656	     12.48178231	     11.28163936	      5.86517425	    -16.82430453	     53.39730364	     70.68481544	     60.40314185	      1.97569821	     19.30916753
      0.01923077	     -4.67423477	     -3.13922792	     99.75016112	      0.09181942	      0.54853126	      0.78385344	      0.08675714	      0.42680896	     -8.74774128	      9.36369254	      0.16342727	     30.98033151	      6.93650077	      0.00000000	      2.94846049	      0.88163313	     -1.16485480	     11.68044063	      0.20386215	     30.95639270	      0.03449243	      0.00000000	      0.45591177	     -0.18270090	     -0.18549634	      0.84667374	     -0.24299220	     -0.19708986	      0.74901744	     -0.44421898	     -0.19708986	      0.52106156	     -0.44421898	     -0.16230930	      0.42335967	     -0.37256368	     -0.15071578	      0.26050798	     -0.28300370	     -0.13912225	      3.25653216	     -2.06674917	     -1.03167499	      0.00000000	      0.00000000	     28.20470204	      3.33339934	     10.63235253	      3.94474374	    -13.50515532	     52.96055599	     65.25134565	     89.22141624	      7.43387212	      7.89046018	      2.91357381	    -16.48889471	     48.10555295	     71.41867101	     64.49548559	      5.07551423	     22.81214827
      0.03846154	     -4.65063528	     -2.92967286	    100.31283637	      0.09155274	      0.54855431	      0.78370941	     -0.45940255	      0.49676254	     -9.54484483	      8.93448773	      0.15593623	     30.76725623	      7.44798975	      0.00000000	      2.99330187	      0.81356258	     -0.68363591	     12.27455790	      0.21423145	     31.02919106	     -0.08936120	      0.00000000	      0.43891603	     -0.18558380	     -0.51147759	      0.81511096	     -0.24682646	     -0.54344494	      0.72109515	     -0.45122846	     -0.54344494	      0.50163713	     -0.45122846	     -0.44754289	      0.40757743	     -0.37844249	     -0.41557554	      0.25079662	     -0.28746931	     -0.38360820	      3.13513332	     -2.09936109	     -2.84468493	      0.00000000	      0.00000000	     28.18550594	      3.98510121	     11.26994523	      5.57728674	    -13.74379740	     57.47684912	     64.66027682	     89.34436162	      2.33463390	      4.83694462	      0.99584284	    -16.36664497	     44.94259454	     71.78782184	     67.29404176	      8.14065039	     24.05282491
      0.05769231	     -4.62339222	     -2.78862626	    100.69515486	      0.09136011	      0.54859948	      0.78340479	     -0.83969588	      0.56720331	    -10.05868294	      8.59054244	      0.14993325	     30.72550998	      7.76585764	      0.00000000	      3.03114216	      0.80132299	      0.02534806	     12.70572892	      0.22175680	     31.06805676	     -0.73581359	      0.00000000	      0.42727320	     -0.18655148	     -0.69915255	      0.79348906	     -0.24811347	     -0.74284958	      0.70196714	     -0.45358127	     -0.74284958	      0.48833054	     -0.45358127	     -0.61175848	      0.39676589	     -0.38041578	     -0.56806144	      0.24414391	     -0.28896824	     -0.52436441	      3.05196974	     -2.11030764	     -3.88847672	      0.00000000	      0.00000000	     28.17242591	      4.37587216	     11.61880874	      6.49635550	    -13.83409236	     60.41903464	     64.18794549	     89.38851593	     -1.42057650	      2.38782956	     -0.15162609	    -16.42817177	     43.34520957	     72.02293690	     69.70113522	     10.91730222	     24.13146308
